<?xml version="1.0" encoding="UTF-8"?>
<svg xmlns="http://www.w3.org/2000/svg" viewBox="0 0 288 288">
  <defs>
    <style>
      .cls-1 {
        fill: #f8ac1e;
      }

      .cls-1, .cls-2, .cls-3, .cls-4, .cls-5, .cls-6, .cls-7, .cls-8, .cls-9, .cls-10, .cls-11, .cls-12, .cls-13, .cls-14 {
        stroke-width: 0px;
      }

      .cls-2 {
        fill: #5ca880;
      }

      .cls-3 {
        fill: #292f33;
      }

      .cls-4 {
        fill: #1b8040;
      }

      .cls-5 {
        fill: #c3d2d8;
      }

      .cls-6 {
        fill: #cc3028;
      }

      .cls-7 {
        fill: #e09c3d;
      }

      .cls-8 {
        fill: #e23325;
      }

      .cls-9 {
        fill: #be694f;
      }

      .cls-10 {
        fill: #b02926;
      }

      .cls-11 {
        fill: #d9a12b;
      }

      .cls-12 {
        fill: #fce5b3;
      }

      .cls-13 {
        fill: #e74b35;
      }

      .cls-14 {
        fill: #fcd680;
      }
    </style>
  </defs>
  <g id="String">
    <g>
      <path class="cls-11" d="m155.62,11.63c0,.68-.06,1.35-.17,1.99-.49,2.88-2.05,5.39-4.26,7.11-1.98,1.58-4.48,2.51-7.19,2.51-2.08,0-4.02-.59-5.71-1.55,7.69-4.13,9.97-10.39,7.38-21.55,1.39.21,2.69.68,3.89,1.34,3.6,1.97,6.07,5.76,6.07,10.15Z"/>
      <path class="cls-1" d="m145.66.14c2.59,11.15.31,17.42-7.38,21.55-.51-.29-.99-.61-1.44-.97-2.21-1.73-3.79-4.22-4.28-7.1-.13-.64-.18-1.31-.18-1.99C132.38,5.21,137.58,0,143.99,0c.56,0,1.13.05,1.67.14Z"/>
      <path class="cls-5" d="m155.45,13.62l97.57,49.23h-18.37l-83.46-42.12c2.21-1.73,3.76-4.24,4.26-7.11Z"/>
      <path class="cls-5" d="m132.56,13.62c.49,2.88,2.07,5.38,4.28,7.1L53.36,62.85h-18.38L132.56,13.62Z"/>
    </g>
  </g>
  <g id="Bar">
    <g>
      <path class="cls-9" d="m260.13,74.47c11.07,0,9.97-3.17,10.22-11.63h6.02c6.42,0,11.63,5.2,11.63,11.63s-5.2,11.63-11.63,11.63H11.63c-6.42,0-11.63-5.2-11.63-11.63,0-1.89.49-3.65,1.3-5.23,1.04,5.58,4.37,5.02,11.22,5.23h247.61Z"/>
      <path class="cls-7" d="m267.58,62.85h2.77c-.25,8.46.85,11.63-10.22,11.63H12.52c-6.85-.21-10.19.36-11.22-5.23,1.91-3.78,5.79-6.4,10.32-6.4h255.96Z"/>
    </g>
  </g>
  <g id="Roll">
    <rect class="cls-14" x="29.2" y="51.34" width="229.6" height="46.28"/>
  </g>
  <g id="Middle">
    <g>
      <rect class="cls-12" x="41.59" y="56.11" width="204.82" height="145.85"/>
      <rect class="cls-2" x="246.41" y="56.11" width="12.41" height="145.85"/>
      <rect class="cls-2" x="29.18" y="56.11" width="12.41" height="145.85"/>
    </g>
  </g>
  <g id="Bottom">
    <g>
      <polygon class="cls-2" points="143.97 267.66 258.82 208.54 258.82 200.96 246.41 200.96 143.97 253.7 41.59 200.96 29.18 200.96 29.18 208.54 143.97 267.66"/>
      <path class="cls-5" d="m258.82,208.54v16.26c0,2.82-2.3,5.06-5.06,5.06s-5.11-2.24-5.11-5.06v-11.03l10.17-5.23Z"/>
      <polyline class="cls-12" points="246.41 200.96 143.97 253.7 41.59 200.96"/>
      <path class="cls-5" d="m222.22,227.39v16.49c0,2.82-2.3,5.11-5.06,5.11s-5.06-2.3-5.06-5.11v-11.26l10.11-5.23Z"/>
      <path class="cls-5" d="m185.62,246.23v16.78c0,2.82-2.24,5.06-5.06,5.06s-5.06-2.24-5.06-5.06v-11.61l10.11-5.17Z"/>
      <path class="cls-5" d="m149.09,265.02v17.92c0,2.82-2.3,5.06-5.11,5.06s-5.06-2.24-5.06-5.06v-17.87l5.06,2.59,5.11-2.64Z"/>
      <path class="cls-5" d="m112.49,251.4v11.61c0,2.82-2.3,5.06-5.06,5.06s-5.06-2.24-5.06-5.06v-16.78l10.11,5.17Z"/>
      <path class="cls-5" d="m65.78,227.39l10.11,5.23v11.26c0,2.82-2.24,5.11-5.06,5.11s-5.06-2.3-5.06-5.11v-16.49Z"/>
      <path class="cls-5" d="m39.29,213.77v11.03c0,2.82-2.24,5.06-5.06,5.06s-5.06-2.24-5.06-5.06v-16.26l10.11,5.23Z"/>
    </g>
  </g>
  <g id="Top_Roll" data-name="Top Roll">
    <g>
      <polygon class="cls-4" points="258.82 51.34 258.82 56.11 246.41 56.11 246.41 51.34 253.07 51.34 258.82 51.34"/>
      <polygon class="cls-14" points="246.41 51.34 246.41 56.11 41.59 56.11 41.59 51.34 53.31 51.34 234.69 51.34 246.41 51.34"/>
      <polygon class="cls-4" points="41.59 51.34 41.59 56.11 29.18 56.11 29.18 51.34 34.93 51.34 41.59 51.34"/>
    </g>
  </g>
  <g id="Icon">
    <g>
      <path class="cls-13" d="m176.96,170.96c-.36.35-.2.8-.2,1.2-.01,7.25-.02,14.49,0,21.74,0,.85-.22,1.21-1.1,1.42-3.41.81-6.87,1.25-10.34,1.64-4.14.46-8.29.78-12.46.83-.96.22-1.93.04-2.9.1-.37.02-.76-.1-1.12.11h-10.14c-.96-.24-1.93-.04-2.89-.11-.38-.03-.76.1-1.13-.1-4.72-.08-9.42-.44-14.1-1.03-2.98-.38-5.95-.79-8.87-1.49-.81-.19-1.17-.47-1.14-1.38.07-2.39.02-4.78.03-7.17,0-.34-.1-.71.19-1,.32.26.29.63.29.97.01,2.21.01,4.43,0,6.64,0,.29.05.62-.14.74,1.44-2.7,3.03-5.46,4.57-8.25,2.89-5.23,5.85-10.42,8.72-15.65.2-.37.38-.76.72-1.03.93-.3,1.8.16,2.69.26,1.33.15,2.65.35,3.97.54,1.1.16,1.22.42.72,1.4-1.05,2.11-2.01,4.26-2.91,6.45-1.32,3.23-2.36,6.55-3.17,9.95-.19.79.06,1.16.81,1.4,2.08.66,4.14,1.37,6.21,2.06,1.16.38,1.22.36,1.51-.81,1.08-4.38,2.42-8.67,4.29-12.79.53-1.16,1.17-2.25,1.79-3.35.35-.62.86-.9,1.58-.75.77.16,1.55.21,2.31.03,1-.23,1.56.17,2.05,1.01,1.57,2.69,2.72,5.56,3.75,8.48.87,2.46,1.57,4.97,2.16,7.5.19.82.52,1.03,1.32.75,2.09-.74,4.19-1.44,6.31-2.1.86-.27,1.06-.7.85-1.57-1.28-5.4-3.25-10.55-5.7-15.52-.94-1.92-.89-1.98,1.27-2.25,6.49-.81,12.82-2.22,18.89-4.71.42-.17.83-.43,1.29-.08.55,1.16.23,2.39.27,3.59.03.78.22,1.61-.32,2.32Z"/>
      <path class="cls-13" d="m164.1,97c3.21.25,6.38.81,9.52,1.5,4.16.91,8.21,2.14,12.01,4.11,4.63,2.39,7.51,6,8.5,11.2.69,3.62,1.14,7.24,1.46,10.9.66,7.55.36,15.1.34,22.65,0,3.29-.22,6.59-.41,9.87-.2,3.46-.47,6.92-.6,10.38-.04,1.03-.73,1.45-1.54,1.78-1.57.65-3.25.95-4.91,1.08-2.86.22-5.72.63-8.6.45-.42-.56-.28-1.22-.28-1.84,0-12.04-.02-24.07,0-36.11,0-2.03-.7-3.78-1.81-5.41-.09-.13-.16-.32-.4-.31-.19.35-.09.74-.09,1.11,0,8.59,0,17.17-.01,25.76,0,.62.1,1.28-.28,1.85-1.73,1.07-3.7,1.51-5.61,2.09-5.8,1.77-11.74,2.88-17.76,3.63-1.07.13-2.1.05-3.09-.44-.6-.29-1.25-.48-1.85-.77-3.74-1.84-7.4-1.33-10.95.47-2.64,1.34-5.2.57-7.8.04-.47-.6.03-1.07.27-1.52,1.61-2.97,3.26-5.92,4.89-8.87,2.93-5.29,5.84-10.6,8.75-15.9,2.7-4.9,5.36-9.82,8.06-14.72,1.65-2.99,3.24-6.01,4.84-9.02,1.83-3.45,3.64-6.91,5.43-10.38.47-.91.83-1.86,1.27-2.78.15-.31.21-.69.62-.79Z"/>
      <path class="cls-13" d="m107.7,170.92c-4.41-.06-8.83-.11-13.1-1.41-1.71-.52-1.96-.9-1.94-2.64.02-2.88-.14-5.76-.28-8.63-.13-2.88.05-5.77-.17-8.63-.36-4.67-.16-9.35-.15-14.02,0-3.93.16-7.86.42-11.77.34-5.2.87-10.36,1.96-15.48.84-3.97,3.3-6.06,6.87-7.34,4.41-1.58,8.96-2.48,13.57-3.16,2.73-.4,5.46-.76,8.21-1.03.24.12.34.35.43.58,2,5.21,4.9,9.96,7.56,14.83,3.12,5.71,6.39,11.33,9.64,16.97.42.73.38,1.38,0,2.09-1.53,2.81-3.05,5.62-4.57,8.44-2.09,3.86-4.21,7.71-6.29,11.58-1.42,2.63-2.86,5.25-4.26,7.89-.29.54-.69.88-1.33.87-2.9-.48-5.73-1.3-8.54-2.12-1.34-.39-2.66-.87-3.99-1.32-.43-.14-.88-.26-1.18-.64-.33-.59-.24-1.23-.25-1.86,0-8.55,0-17.1,0-25.66,0-.38.04-.77-.07-1.3-.74.7-1.18,1.51-1.54,2.35-.51,1.18-.68,2.42-.68,3.71.01,11.97.01,23.93,0,35.9,0,.62.14,1.28-.28,1.84Z"/>
      <path class="cls-8" d="m124.33,159.77c.48.02.74-.22.97-.64,3.31-6.16,6.64-12.31,9.97-18.46,1.74-3.21,3.47-6.43,5.24-9.63.35-.63.31-1.13-.05-1.75-3.99-6.87-7.95-13.75-11.73-20.74-1.74-3.21-3.54-6.4-4.98-9.77-.28-.64-.46-1.33-.68-1.99.29-2.02,1.1-3.76,2.74-5.04.52.19.64.7.87,1.12.86,1.51,1.51,3.13,2.58,4.51.59,1.74,1.62,3.28,2.47,4.89,2.9,5.46,5.85,10.9,8.78,16.35.9,1.67,1.81,3.34,2.7,5.01.19.35.48.68.31,1.28,1.26-2.24,2.38-4.39,3.53-6.51,3.06-5.62,6.09-11.25,9.14-16.87.74-1.35,1.58-2.66,2.09-4.13,1.06-1.39,1.75-3,2.59-4.52.23-.42.35-.93.88-1.12,1.51,1.42,2.21,3.21,2.33,5.24-2.69,6.2-6.05,12.06-9.22,18.01-2.35,4.4-4.73,8.79-7.12,13.16-4.53,8.25-9.09,16.49-13.62,24.74-1.44,2.62-2.85,5.25-4.28,7.87-.12.15-.28.23-.46.21-1.61-.16-3.2-.45-4.77-.84-.18-.04-.3-.17-.29-.38Z"/>
      <path class="cls-6" d="m129.23,97.47c-.51-.04-.65-.47-.84-.83-.86-1.63-1.72-3.26-2.58-4.89,2.05-.65,4.18-.81,6.29-1.06,4.88-.56,9.78-.83,14.69-.63,4.71.19,9.42.48,14.06,1.44.31.06.61.16.91.25-.8,1.5-1.58,3.01-2.4,4.5-.26.47-.41,1.05-1.03,1.23-.44.28-.89.09-1.32,0-3.51-.75-7.06-1.13-10.66-1.23-5.46-.15-10.87.09-16.21,1.32-.31.07-.63.12-.91-.09Z"/>
      <path class="cls-8" d="m107.7,170.92c0-10.56-.02-21.11-.02-31.67,0-2.36-.04-4.72,0-7.07.05-2.37,1.21-4.22,2.77-5.99.28.49.17.88.17,1.25,0,9.11,0,18.23.01,27.34,0,.41-.14.85.2,1.21.17.31.3.64.3,1-.02,2.67.11,5.34-.07,8.01-.25,1.49-.07,2.99-.14,4.49-.02.51.09,1.06-.33,1.49l-2.91-.04Z"/>
      <path class="cls-8" d="m176.71,155.98c.37-.39.21-.87.21-1.31,0-9.08,0-18.16.01-27.23,0-.37-.1-.76.15-1.24,1.55,1.68,2.76,3.52,2.77,5.77.05,12.98.01,25.97,0,38.95-.97.01-1.94.03-2.91.04,0-1.61,0-3.22-.03-4.83,0-.37.13-.78-.2-1.1-.29-.31-.31-.7-.31-1.09-.02-2.29-.02-4.57,0-6.86,0-.39.03-.78.3-1.09Z"/>
      <path class="cls-13" d="m124.99,169.29c-1.17,2.16-2.31,4.33-3.5,6.47-2.88,5.18-5.79,10.35-8.69,15.53-.59,1.06-1.19,2.12-2,3.12,0-2.89,0-5.79,0-8.68.03-.06.04-.11.04-.18,1.05-2.74,2.66-5.19,4.02-7.77,1.54-2.92,3.12-5.83,4.74-8.71.22-.39.37-.85.85-1.03,1.4.13,2.74.51,4.11.82.21.05.37.2.43.42Z"/>
      <path class="cls-13" d="m120.32,168.23c-3.03,5.62-6.05,11.24-9.08,16.85-.1.18-.26.32-.39.48,0-4.47-.01-8.93-.03-13.4,0-.4.16-.85-.2-1.2,0-1.61,0-3.22.03-4.84,0-.37-.13-.78.2-1.1.36-.24.67-.03.99.1,2.49,1.04,5.06,1.85,7.67,2.57.33.09.71.12.83.54Z"/>
      <path class="cls-3" d="m120.32,168.23c-3.22-.9-6.41-1.87-9.48-3.21-.08-3.02-.1-6.03,0-9.05,4.4,1.6,8.88,2.91,13.49,3.79,1.81.48,3.66.76,5.52,1.01,1.53.22,3.06.43,4.59.65.83.12,1.59-.01,2.34-.41.56-.29,1.18-.45,1.75-.73,3.53-1.73,7.11-1.79,10.54.06,2.51,1.35,4.99,1.04,7.57.65,6.4-.98,12.7-2.4,18.81-4.57.42-.15.84-.3,1.26-.44.12,3.01.09,6.03.02,9.04-6.91,2.97-14.18,4.46-21.62,5.33-.07.43.23.72.39,1.04,2.69,5.32,4.82,10.83,6.13,16.66.18.79-.03,1.04-.73,1.26-2.41.76-4.81,1.55-7.2,2.39-.69.24-.93.19-1.12-.6-1.25-5.34-2.85-10.58-5.46-15.44-.07-.12-.14-.24-.2-.37-.49-1.08-1.05-1.92-2.51-1.41-.55.19-1.29.11-1.87-.07-.8-.25-1.13.1-1.49.71-2.88,4.98-4.59,10.39-5.95,15.93-.37,1.51-.35,1.52-1.81,1.04-2.23-.73-4.46-1.49-6.7-2.2-.66-.21-.85-.44-.69-1.18,1.31-5.83,3.44-11.35,6.12-16.66.17-.34.33-.68.51-1.04-2.57-.38-5.07-.74-7.57-1.11-1.56-.35-3.11-.7-4.67-1.06Z"/>
      <path class="cls-10" d="m129.23,97.47c9.7-2.24,19.4-2.24,29.1,0,.28.33.03.59-.12.86-2.93,5.4-5.87,10.8-8.8,16.2-1.66,3.06-3.3,6.12-4.95,9.18-.23.43-.49.84-.77,1.33-1.56-2.86-3.07-5.63-4.57-8.41-3.23-6-6.45-12.01-9.65-18.02-.18-.33-.6-.66-.26-1.14Z"/>
    </g>
  </g>
</svg>
